<svg xmlns="http://www.w3.org/2000/svg" viewBox="0 0 64 64" role="img" aria-label="UMA">
  <rect width="64" height="64" rx="16" fill="#111111"/>
  <rect x="9" y="9" width="46" height="46" rx="13" fill="#1b1b1b" stroke="#ffbf1f" stroke-width="2"/>
  <rect x="17" y="41" width="30" height="6" rx="3" fill="#ffbf1f"/>
  <path d="M20 19h8.3c2.4 0 4.3 1.9 4.3 4.3v1.4c0 1.8-1.1 3.4-2.8 4.1 1.9.5 3.1 2.1 3.1 4.2v1.6c0 2.8-2.2 5-5 5H20V19zm5 8.7c1.1 0 1.8-.7 1.8-1.8v-.8c0-1.1-.7-1.8-1.8-1.8h-1.7v4.4H25zm.4 8.9c1.2 0 2-.8 2-2v-1c0-1.2-.8-2-2-2h-2.1v5h2.1zm13.4-17.6h4.2l4.8 15.9h-4.2l-.7-2.6h-4.1l-.7 2.6h-4.1l4.8-15.9zm.8 9.9h2.7l-1.3-5.2-1.4 5.2z" fill="#ffbf1f"/>
</svg>
