P2
# 8x8 checkerboard
8 8
255
0 255 0 255 0 255 0 255
255 0 255 0 255 0 255 0
0 255 0 255 0 255 0 255
255 0 255 0 255 0 255 0
0 255 0 255 0 255 0 255
255 0 255 0 255 0 255 0
0 255 0 255 0 255 0 255
255 0 255 0 255 0 255 0
